<?xml version="1.0" encoding="utf-8"?>
<!-- Generator: Adobe Illustrator 26.3.1, SVG Export Plug-In . SVG Version: 6.00 Build 0)  -->
<svg version="1.1" id="Layer_1" xmlns="http://www.w3.org/2000/svg" xmlns:xlink="http://www.w3.org/1999/xlink" x="0px" y="0px"
	 viewBox="0 0 100 100" style="enable-background:new 0 0 100 100;" xml:space="preserve">
<style type="text/css">
	.st0{clip-path:url(#SVGID_00000159430776842226182930000009256953943361052076_);}
	.st1{fill:#1A1818;}
	.st2{fill:#878DAA;}
</style>
<g id="arrow_copy" transform="translate(-114 -271)">
	<g id="arrow_copy-2" transform="matrix(-1, 0, 0, -1, 128, 295)">
		<g id="Group_6138">
			<g>
				<defs>
					<rect id="SVGID_1_" x="-84.2" y="-54.6" width="96.3" height="56.2"/>
				</defs>
				<clipPath id="SVGID_00000145781162961109802950000007648859684712128926_">
					<use xlink:href="#SVGID_1_"  style="overflow:visible;"/>
				</clipPath>
				<g id="Group_6137" style="clip-path:url(#SVGID_00000145781162961109802950000007648859684712128926_);">
					<path id="Path_3090" class="st1" d="M-36.1-17c0.4-0.5,0.6-0.8,0.9-1.1c11.6-11.5,23.2-23,34.8-34.5c1.6-2.1,4.5-2.5,6.7-1.1
						c1.9,1.4,3.6,3.1,5,5c1.3,1.8,1.1,4.3-0.4,5.9c-0.2,0.3-0.5,0.6-0.8,0.8L-31.9-0.4c-1.7,2-4.6,2.5-6.9,1.2
						c-0.5-0.3-1-0.7-1.4-1.2c-14-13.9-28.1-27.8-42.1-41.8c-2.3-1.8-2.6-5.2-0.8-7.4c0.2-0.3,0.5-0.5,0.8-0.8
						c1.1-1,2.1-2.1,3.3-3.1c2-1.6,4.8-1.5,6.7,0.2c0.3,0.3,0.6,0.6,0.9,0.8c11.5,11.4,23,22.8,34.5,34.3
						C-36.6-17.8-36.3-17.4-36.1-17"/>
				</g>
			</g>
		</g>
	</g>
	<path id="Color_Overlay" class="st2" d="M117.2,337.8c0.2-0.3,0.5-0.6,0.8-0.8c14-13.9,28-27.8,41.9-41.6c1.7-2,4.6-2.5,6.9-1.2
		c0.5,0.3,1,0.7,1.4,1.2c14,13.9,28.1,27.8,42.1,41.8c2.3,1.8,2.6,5.2,0.8,7.4c-0.2,0.3-0.5,0.5-0.8,0.8c-1.1,1.1-2.1,2.1-3.3,3.1
		c-2,1.6-4.8,1.5-6.7-0.2c-0.3-0.3-0.6-0.6-0.9-0.8c-11.5-11.4-23-22.8-34.5-34.3c-0.3-0.3-0.6-0.7-0.8-1.1
		c-0.4,0.5-0.6,0.8-0.9,1.1c-11.6,11.5-23.2,23-34.8,34.5c-1,1.2-2.5,1.9-4.1,1.9h0c-0.9,0-1.8-0.3-2.6-0.9c-1.9-1.4-3.6-3.1-5-5
		c-0.6-0.7-0.9-1.6-0.9-2.5C115.9,340,116.4,338.8,117.2,337.8z"/>
</g>
</svg>
